<svg xmlns="http://www.w3.org/2000/svg" xmlns:xlink="http://www.w3.org/1999/xlink" width="100" zoomAndPan="magnify" viewBox="0 0 75 74.999997" height="100" preserveAspectRatio="xMidYMid meet" version="1.0"><defs><g/><clipPath id="9a094967a2"><path d="M 17.832031 12.886719 L 57.582031 12.886719 L 57.582031 38.386719 L 17.832031 38.386719 Z M 17.832031 12.886719 " clip-rule="nonzero"/></clipPath></defs><g clip-path="url(#9a094967a2)"><path fill="#333333" d="M 37.6875 12.890625 C 34.5625 12.898438 31.449219 13.019531 28.421875 13.238281 C 25.421875 15.765625 24.8125 17.203125 23.679688 19.257812 C 23.160156 19.28125 23.636719 18.097656 23.265625 18 C 22.152344 17.707031 21.109375 18.09375 20.804688 18.351562 C 20.59375 18.503906 20.59375 18.746094 20.582031 18.953125 C 20.546875 19.609375 21.058594 20.105469 22.339844 20.046875 C 22.527344 19.546875 22.898438 19.480469 23.289062 19.457031 C 22.949219 19.566406 22.53125 19.605469 22.554688 20.035156 C 23.011719 19.996094 23.203125 20.085938 23.398438 20.128906 C 23.019531 20.59375 22.457031 21.164062 22.109375 21.765625 C 22.085938 21.445312 22.546875 20.914062 22.816406 20.609375 C 20.710938 21.808594 19.535156 23.34375 18.511719 24.433594 C 18.113281 25.734375 17.839844 27.03125 17.867188 28.328125 C 18.113281 28.660156 18.398438 28.882812 18.914062 29.003906 C 18.492188 28.964844 18.101562 28.925781 17.867188 28.59375 L 18.128906 33.859375 C 18.488281 33.917969 18.9375 34.109375 19.171875 34.425781 C 18.953125 34.375 18.4375 33.972656 18.152344 34.027344 C 18.019531 35.03125 18.140625 35.914062 18.273438 36.792969 C 18.316406 37.617188 19.117188 38.363281 19.558594 38.382812 L 24.671875 38.308594 C 25.039062 38.324219 25.046875 37.90625 25.03125 37.75 C 24.300781 37.828125 23.789062 37.675781 23.417969 37.554688 C 25.53125 37.691406 28.007812 37.609375 30.257812 37.609375 C 33.085938 36.960938 35.21875 37.355469 37.714844 37.234375 C 40.207031 37.355469 42.339844 36.960938 45.167969 37.609375 C 47.417969 37.609375 49.898438 37.691406 52.011719 37.554688 C 51.640625 37.675781 51.125 37.828125 50.394531 37.75 C 50.378906 37.90625 50.386719 38.324219 50.757812 38.308594 L 55.871094 38.382812 C 56.3125 38.363281 57.109375 37.617188 57.15625 36.792969 C 57.285156 35.914062 57.40625 35.03125 57.273438 34.027344 C 56.988281 33.972656 56.476562 34.375 56.257812 34.425781 C 56.488281 34.109375 56.9375 33.917969 57.296875 33.859375 L 57.558594 28.59375 C 57.324219 28.925781 56.933594 28.964844 56.511719 29.003906 C 57.03125 28.882812 57.316406 28.660156 57.558594 28.328125 C 57.585938 27.03125 57.316406 25.734375 56.917969 24.433594 C 55.890625 23.34375 54.714844 21.808594 52.613281 20.609375 C 52.878906 20.914062 53.339844 21.445312 53.320312 21.765625 C 52.96875 21.164062 52.40625 20.59375 52.027344 20.128906 C 52.222656 20.085938 52.417969 19.996094 52.875 20.035156 C 52.894531 19.605469 52.476562 19.566406 52.136719 19.457031 C 52.527344 19.480469 52.898438 19.546875 53.085938 20.046875 C 54.367188 20.105469 54.878906 19.609375 54.84375 18.953125 C 54.832031 18.746094 54.832031 18.503906 54.621094 18.351562 C 54.316406 18.09375 53.277344 17.707031 52.160156 18 C 51.792969 18.097656 52.265625 19.28125 51.746094 19.257812 C 50.613281 17.203125 50.003906 15.765625 47.003906 13.238281 C 43.945312 12.992188 40.8125 12.882812 37.6875 12.890625 Z M 28.894531 13.289062 C 28.640625 13.402344 28.324219 13.628906 28.304688 13.859375 C 34.285156 13.261719 41.105469 13.113281 47.121094 13.859375 C 47.101562 13.628906 46.785156 13.402344 46.535156 13.289062 C 47.75 13.515625 50.367188 17.898438 51.058594 19.222656 C 41.910156 18.632812 32.605469 18.679688 24.371094 19.222656 C 25.0625 17.898438 27.675781 13.515625 28.894531 13.289062 Z M 25.332031 21.859375 C 25.59375 22.417969 26.039062 23.464844 26.445312 24.410156 C 27.375 24.425781 28.074219 24.507812 28.820312 24.574219 L 28.777344 24.753906 C 27.996094 24.679688 27.269531 24.578125 26.386719 24.554688 C 26.035156 23.65625 25.683594 22.78125 25.332031 21.859375 Z M 50.09375 21.859375 C 49.742188 22.78125 49.394531 23.65625 49.042969 24.554688 C 48.15625 24.578125 47.433594 24.679688 46.652344 24.753906 L 46.605469 24.574219 C 47.351562 24.507812 48.050781 24.425781 48.980469 24.410156 C 49.390625 23.464844 49.832031 22.417969 50.09375 21.859375 Z M 21.5 23.703125 C 21.695312 23.707031 21.894531 23.730469 22.097656 23.777344 C 23.070312 24.09375 23.765625 24.457031 26.070312 24.527344 L 27.75 27.894531 C 29.0625 30.355469 29.222656 33.144531 31.6875 35.273438 C 33.574219 35.734375 35.546875 35.632812 37.492188 35.710938 C 37.53125 35.710938 37.570312 35.710938 37.609375 35.710938 L 37.570312 35.714844 C 37.542969 35.714844 37.519531 35.714844 37.492188 35.710938 C 35.492188 35.710938 33.53125 35.898438 31.449219 35.460938 C 28.824219 32.757812 28.871094 30.507812 27.582031 28.03125 C 19.429688 27.730469 19.300781 26.945312 19.140625 26.738281 C 18.980469 26.527344 18.835938 26.285156 19.152344 24.269531 C 19.921875 24.042969 20.660156 23.683594 21.5 23.703125 Z M 53.925781 23.703125 C 54.765625 23.683594 55.503906 24.039062 56.277344 24.269531 C 56.59375 26.285156 56.449219 26.527344 56.289062 26.738281 C 56.125 26.945312 56 27.730469 47.84375 28.03125 C 46.554688 30.507812 46.605469 32.757812 43.976562 35.460938 C 41.894531 35.898438 39.933594 35.710938 37.9375 35.710938 C 37.910156 35.714844 37.882812 35.714844 37.855469 35.714844 L 37.820312 35.710938 C 37.859375 35.710938 37.898438 35.710938 37.9375 35.710938 C 39.882812 35.632812 41.855469 35.734375 43.742188 35.273438 C 46.207031 33.144531 46.363281 30.355469 47.675781 27.894531 L 49.359375 24.527344 C 51.660156 24.457031 52.355469 24.09375 53.328125 23.777344 C 53.535156 23.730469 53.734375 23.707031 53.925781 23.703125 Z M 32.410156 23.84375 C 33.941406 23.859375 35.636719 24.035156 36.714844 24.160156 C 36.949219 24.1875 36.953125 24.582031 37.183594 24.585938 C 37.28125 24.585938 37.269531 24.769531 37.285156 24.851562 C 37.308594 25.46875 37.789062 28.765625 36.5625 28.964844 C 35.328125 29.003906 33.289062 29.066406 31.988281 28.949219 C 28.332031 28.660156 28.878906 24.902344 29.125 24.488281 C 29.527344 23.972656 30.882812 23.828125 32.410156 23.84375 Z M 43.011719 23.84375 C 44.542969 23.828125 45.902344 23.972656 46.300781 24.488281 C 46.542969 24.902344 47.09375 28.660156 43.4375 28.949219 C 42.136719 29.066406 40.097656 29.003906 38.863281 28.964844 C 37.636719 28.765625 38.117188 25.46875 38.140625 24.851562 C 38.15625 24.769531 38.144531 24.585938 38.242188 24.585938 C 38.472656 24.582031 38.476562 24.1875 38.710938 24.160156 C 39.789062 24.035156 41.484375 23.859375 43.011719 23.84375 Z M 20.316406 24.496094 C 20.066406 24.804688 19.941406 25.160156 19.941406 25.5625 C 19.941406 25.78125 19.980469 25.992188 20.058594 26.191406 C 20.140625 26.390625 20.253906 26.570312 20.398438 26.722656 C 20.546875 26.878906 20.71875 26.996094 20.910156 27.078125 C 21.101562 27.164062 21.304688 27.203125 21.511719 27.203125 C 21.835938 27.203125 22.132812 27.105469 22.402344 26.914062 C 22.671875 26.71875 22.863281 26.464844 22.980469 26.144531 C 22.664062 26.527344 22.265625 26.722656 21.785156 26.722656 C 21.578125 26.722656 21.375 26.679688 21.183594 26.597656 C 20.992188 26.511719 20.820312 26.394531 20.671875 26.242188 C 20.527344 26.085938 20.414062 25.910156 20.332031 25.707031 C 20.253906 25.507812 20.210938 25.296875 20.214844 25.078125 C 20.214844 24.878906 20.25 24.683594 20.316406 24.496094 Z M 55.109375 24.496094 C 55.175781 24.683594 55.210938 24.878906 55.210938 25.078125 C 55.210938 25.296875 55.171875 25.507812 55.09375 25.707031 C 55.011719 25.910156 54.898438 26.085938 54.753906 26.242188 C 54.605469 26.394531 54.433594 26.511719 54.242188 26.597656 C 54.050781 26.679688 53.847656 26.722656 53.640625 26.722656 C 53.160156 26.722656 52.761719 26.527344 52.445312 26.144531 C 52.5625 26.464844 52.753906 26.71875 53.023438 26.914062 C 53.289062 27.105469 53.589844 27.203125 53.914062 27.203125 C 54.121094 27.203125 54.324219 27.164062 54.515625 27.078125 C 54.707031 26.996094 54.878906 26.878906 55.027344 26.722656 C 55.171875 26.570312 55.285156 26.390625 55.367188 26.191406 C 55.445312 25.992188 55.484375 25.78125 55.484375 25.5625 C 55.484375 25.160156 55.359375 24.804688 55.109375 24.496094 Z M 29.375 24.734375 C 29.261719 25.160156 29.441406 26.59375 29.851562 27.054688 C 29.875 27.074219 29.898438 27.09375 29.921875 27.113281 L 29.785156 24.757812 C 29.648438 24.75 29.511719 24.742188 29.375 24.734375 Z M 46.050781 24.734375 C 45.914062 24.742188 45.78125 24.75 45.644531 24.757812 L 45.503906 27.113281 C 45.527344 27.09375 45.550781 27.074219 45.574219 27.054688 C 45.984375 26.59375 46.164062 25.160156 46.050781 24.734375 Z M 29.917969 24.765625 L 30.066406 27.222656 C 30.207031 27.324219 30.359375 27.414062 30.527344 27.496094 L 30.371094 24.792969 C 30.21875 24.78125 30.070312 24.773438 29.917969 24.765625 Z M 45.507812 24.765625 C 45.355469 24.773438 45.207031 24.78125 45.058594 24.792969 L 44.898438 27.496094 C 45.066406 27.414062 45.21875 27.324219 45.363281 27.222656 Z M 30.507812 24.796875 L 30.667969 27.5625 C 30.8125 27.625 30.964844 27.683594 31.121094 27.734375 L 30.964844 24.824219 C 30.8125 24.816406 30.660156 24.808594 30.507812 24.796875 Z M 44.921875 24.796875 C 44.765625 24.808594 44.613281 24.816406 44.460938 24.824219 L 44.304688 27.734375 C 44.460938 27.683594 44.613281 27.625 44.757812 27.5625 Z M 31.101562 24.832031 L 31.261719 27.777344 C 31.40625 27.820312 31.558594 27.859375 31.714844 27.894531 L 31.5625 24.855469 C 31.40625 24.847656 31.253906 24.839844 31.101562 24.832031 Z M 44.324219 24.832031 C 44.171875 24.839844 44.019531 24.847656 43.867188 24.855469 L 43.710938 27.894531 C 43.867188 27.859375 44.019531 27.820312 44.167969 27.777344 Z M 31.695312 24.859375 L 31.851562 27.925781 C 32.003906 27.957031 32.15625 27.984375 32.316406 28.007812 L 32.15625 24.878906 C 32.003906 24.875 31.851562 24.867188 31.695312 24.859375 Z M 43.730469 24.859375 C 43.574219 24.867188 43.421875 24.875 43.269531 24.878906 L 43.109375 28.007812 C 43.269531 27.984375 43.421875 27.957031 43.574219 27.925781 Z M 36.945312 24.871094 C 36.816406 24.882812 36.683594 24.890625 36.550781 24.898438 L 36.707031 28.003906 C 37.191406 27.664062 37.167969 25.359375 36.945312 24.871094 Z M 38.480469 24.871094 C 38.257812 25.359375 38.234375 27.664062 38.71875 28.003906 L 38.875 24.898438 C 38.742188 24.890625 38.609375 24.882812 38.480469 24.871094 Z M 32.296875 24.886719 L 32.457031 28.027344 C 32.609375 28.050781 32.769531 28.070312 32.925781 28.085938 L 32.765625 24.90625 C 32.609375 24.898438 32.453125 24.894531 32.296875 24.886719 Z M 43.128906 24.886719 C 42.972656 24.894531 42.816406 24.898438 42.660156 24.90625 L 42.5 28.085938 C 42.65625 28.070312 42.816406 28.050781 42.96875 28.027344 Z M 36.410156 24.90625 C 36.257812 24.917969 36.101562 24.921875 35.945312 24.925781 L 36.105469 28.085938 C 36.261719 28.074219 36.417969 28.0625 36.570312 28.050781 Z M 39.015625 24.90625 L 38.855469 28.050781 C 39.007812 28.0625 39.164062 28.074219 39.320312 28.085938 L 39.484375 24.925781 C 39.324219 24.921875 39.167969 24.917969 39.015625 24.90625 Z M 32.90625 24.910156 L 33.066406 28.097656 C 33.222656 28.109375 33.378906 28.121094 33.535156 28.128906 L 33.375 24.925781 C 33.21875 24.917969 33.0625 24.914062 32.90625 24.910156 Z M 42.519531 24.910156 C 42.363281 24.914062 42.207031 24.921875 42.050781 24.925781 L 41.890625 28.128906 C 42.046875 28.121094 42.203125 28.109375 42.359375 28.097656 Z M 33.515625 24.929688 L 33.675781 28.132812 C 33.832031 28.140625 33.988281 28.144531 34.144531 28.148438 L 33.980469 24.9375 C 33.828125 24.9375 33.671875 24.933594 33.515625 24.929688 Z M 41.914062 24.929688 C 41.753906 24.933594 41.597656 24.9375 41.445312 24.9375 L 41.28125 28.148438 C 41.4375 28.144531 41.59375 28.140625 41.75 28.132812 Z M 35.804688 24.933594 C 35.652344 24.9375 35.496094 24.941406 35.335938 24.941406 L 35.5 28.125 C 35.65625 28.117188 35.8125 28.105469 35.964844 28.097656 Z M 39.621094 24.933594 L 39.460938 28.097656 C 39.613281 28.105469 39.769531 28.117188 39.925781 28.125 L 40.089844 24.941406 C 39.929688 24.941406 39.773438 24.9375 39.621094 24.933594 Z M 34.121094 24.941406 L 34.285156 28.148438 C 34.441406 28.152344 34.597656 28.148438 34.753906 28.148438 L 34.589844 24.945312 C 34.4375 24.945312 34.28125 24.941406 34.121094 24.941406 Z M 41.304688 24.941406 C 41.148438 24.941406 40.988281 24.945312 40.835938 24.945312 L 40.671875 28.148438 C 40.828125 28.148438 40.984375 28.152344 41.140625 28.148438 Z M 35.199219 24.945312 C 35.042969 24.945312 34.886719 24.945312 34.730469 24.945312 L 34.890625 28.144531 C 35.046875 28.140625 35.203125 28.136719 35.359375 28.128906 Z M 40.226562 24.945312 L 40.066406 28.128906 C 40.222656 28.136719 40.378906 28.140625 40.535156 28.144531 L 40.695312 24.945312 C 40.539062 24.945312 40.382812 24.945312 40.226562 24.945312 Z M 24.730469 26.167969 C 24.59375 26.335938 24.523438 26.53125 24.523438 26.75 C 24.523438 27 24.609375 27.210938 24.777344 27.386719 C 24.945312 27.558594 25.148438 27.648438 25.382812 27.648438 C 25.5625 27.648438 25.726562 27.59375 25.871094 27.488281 C 26.019531 27.382812 26.121094 27.242188 26.1875 27.070312 C 26.015625 27.277344 25.796875 27.382812 25.535156 27.382812 C 25.296875 27.382812 25.09375 27.296875 24.925781 27.121094 C 24.757812 26.945312 24.675781 26.734375 24.675781 26.488281 C 24.675781 26.375 24.695312 26.269531 24.730469 26.167969 Z M 50.695312 26.167969 C 50.734375 26.269531 50.753906 26.375 50.753906 26.488281 C 50.753906 26.734375 50.667969 26.945312 50.5 27.121094 C 50.332031 27.296875 50.128906 27.382812 49.894531 27.382812 C 49.628906 27.382812 49.414062 27.277344 49.242188 27.070312 C 49.304688 27.242188 49.410156 27.382812 49.554688 27.488281 C 49.703125 27.59375 49.863281 27.648438 50.042969 27.648438 C 50.28125 27.648438 50.484375 27.558594 50.652344 27.386719 C 50.820312 27.210938 50.902344 27 50.902344 26.75 C 50.902344 26.53125 50.832031 26.335938 50.695312 26.167969 Z M 22.738281 32.640625 C 24.039062 32.632812 25.839844 32.738281 28.355469 32.925781 L 28.273438 33.046875 C 27.742188 33.066406 23.6875 32.519531 21.214844 32.933594 C 21.582031 33.082031 21.769531 33.4375 21.769531 33.851562 C 21.769531 34.402344 21.261719 34.847656 20.632812 34.847656 C 20.4375 34.847656 20.242188 34.800781 20.070312 34.714844 C 20.203125 34.773438 20.351562 34.804688 20.496094 34.808594 C 21.058594 34.808594 21.515625 34.371094 21.515625 33.832031 C 21.515625 33.464844 21.300781 33.140625 20.980469 32.976562 C 20.191406 33.136719 19.597656 33.410156 19.390625 33.851562 C 19.367188 33.914062 19.34375 33.980469 19.324219 34.050781 C 19.339844 33.980469 19.359375 33.914062 19.390625 33.851562 C 19.703125 33.007812 20.425781 32.648438 22.738281 32.636719 Z M 52.691406 32.640625 C 55.003906 32.648438 55.726562 33.007812 56.039062 33.851562 C 56.066406 33.914062 56.089844 33.980469 56.101562 34.050781 C 56.085938 33.980469 56.0625 33.914062 56.039062 33.851562 C 55.832031 33.410156 55.238281 33.136719 54.445312 32.976562 C 54.128906 33.140625 53.914062 33.464844 53.914062 33.832031 C 53.914062 34.371094 54.367188 34.808594 54.929688 34.808594 C 55.078125 34.804688 55.226562 34.773438 55.359375 34.714844 C 55.1875 34.800781 54.992188 34.847656 54.792969 34.847656 C 54.167969 34.847656 53.65625 34.402344 53.65625 33.855469 C 53.65625 33.4375 53.847656 33.082031 54.210938 32.933594 C 51.742188 32.519531 47.683594 33.066406 47.15625 33.046875 L 47.074219 32.925781 C 49.585938 32.738281 51.390625 32.632812 52.691406 32.640625 Z M 30.753906 33.15625 C 35.242188 33.542969 40.007812 33.617188 44.484375 33.15625 C 44.191406 33.707031 43.785156 34.492188 43.175781 34.789062 C 41.902344 35.300781 33.433594 35.316406 32.058594 34.789062 C 31.449219 34.492188 31.042969 33.707031 30.753906 33.15625 Z M 22.003906 33.71875 L 28.929688 34.003906 L 29.105469 34.234375 C 27.042969 33.953125 24.492188 33.847656 22.003906 33.71875 Z M 53.425781 33.71875 C 50.9375 33.847656 48.386719 33.953125 46.320312 34.234375 L 46.5 34.003906 Z M 28.855469 35.917969 C 31.796875 36.136719 34.746094 36.238281 37.714844 36.171875 C 40.683594 36.238281 43.628906 36.136719 46.570312 35.917969 L 46.546875 36.046875 C 43.640625 36.222656 40.730469 36.347656 37.824219 36.296875 L 37.824219 36.292969 C 37.789062 36.292969 37.75 36.292969 37.714844 36.292969 C 37.675781 36.292969 37.640625 36.292969 37.601562 36.292969 L 37.601562 36.296875 C 34.695312 36.347656 31.789062 36.222656 28.878906 36.046875 Z M 19.949219 36.515625 C 22.960938 36.699219 27.320312 37.375 29.046875 36.746094 C 28.230469 37.667969 22.152344 36.761719 19.949219 36.515625 Z M 55.480469 36.515625 C 53.277344 36.761719 47.199219 37.667969 46.382812 36.746094 C 48.109375 37.375 52.464844 36.699219 55.480469 36.515625 Z M 55.480469 36.515625 " fill-opacity="1" fill-rule="evenodd"/></g><g fill="#333333" fill-opacity="1"><g transform="translate(16.566675, 45.729984)"><g><path d="M 0.164062 -4.640625 L 1.828125 -1.378906 L 1.828125 0.0117188 C 1.835938 0.179688 1.878906 0.3125 1.96875 0.394531 C 2.046875 0.472656 2.191406 0.511719 2.382812 0.503906 L 3.058594 0.503906 C 3.257812 0.496094 3.398438 0.460938 3.480469 0.390625 C 3.5625 0.304688 3.597656 0.179688 3.589844 0.0117188 L 3.589844 -1.382812 L 5.246094 -4.640625 C 5.355469 -4.839844 5.363281 -4.980469 5.277344 -5.0625 C 5.191406 -5.144531 5.035156 -5.183594 4.808594 -5.175781 L 4.164062 -5.175781 C 3.972656 -5.171875 3.839844 -5.132812 3.753906 -5.054688 C 3.671875 -4.972656 3.582031 -4.839844 3.488281 -4.640625 L 2.710938 -3.105469 L 1.933594 -4.640625 C 1.835938 -4.839844 1.746094 -4.972656 1.671875 -5.054688 C 1.585938 -5.132812 1.445312 -5.171875 1.25 -5.175781 L 0.613281 -5.175781 C 0.382812 -5.183594 0.222656 -5.144531 0.140625 -5.0625 C 0.0585938 -4.980469 0.0625 -4.839844 0.164062 -4.640625 Z M 0.164062 -4.640625 "/></g></g></g><g fill="#333333" fill-opacity="1"><g transform="translate(21.985923, 45.729984)"><g><path d="M 1.8125 -1.746094 L 1.8125 -2.925781 C 1.8125 -3.21875 1.863281 -3.410156 1.964844 -3.519531 C 2.054688 -3.621094 2.246094 -3.671875 2.519531 -3.671875 L 2.90625 -3.671875 C 3.179688 -3.671875 3.367188 -3.621094 3.46875 -3.519531 C 3.5625 -3.410156 3.609375 -3.21875 3.609375 -2.925781 L 3.609375 -1.746094 C 3.609375 -1.460938 3.5625 -1.269531 3.46875 -1.167969 C 3.367188 -1.058594 3.179688 -1.007812 2.90625 -1.007812 L 2.519531 -1.007812 C 2.246094 -1.007812 2.054688 -1.058594 1.964844 -1.167969 C 1.863281 -1.269531 1.8125 -1.460938 1.8125 -1.746094 Z M 2.433594 0.496094 L 2.988281 0.496094 C 3.804688 0.492188 4.386719 0.339844 4.757812 0.03125 C 5.125 -0.273438 5.304688 -0.828125 5.304688 -1.644531 L 5.304688 -3.015625 C 5.304688 -3.839844 5.125 -4.398438 4.757812 -4.710938 C 4.386719 -5.023438 3.804688 -5.183594 2.988281 -5.183594 L 2.433594 -5.183594 C 1.621094 -5.183594 1.03125 -5.023438 0.664062 -4.710938 C 0.300781 -4.398438 0.121094 -3.839844 0.121094 -3.015625 L 0.121094 -1.644531 C 0.121094 -0.828125 0.300781 -0.273438 0.664062 0.03125 C 1.03125 0.339844 1.621094 0.492188 2.433594 0.496094 Z M 2.433594 0.496094 "/></g></g></g><g fill="#333333" fill-opacity="1"><g transform="translate(27.40517, 45.729984)"><g><path d="M 3.601562 -1.949219 C 3.601562 -1.664062 3.5625 -1.464844 3.46875 -1.378906 C 3.371094 -1.273438 3.21875 -1.21875 2.988281 -1.203125 L 2.429688 -1.203125 C 2.199219 -1.21875 2.039062 -1.273438 1.949219 -1.378906 C 1.855469 -1.464844 1.8125 -1.664062 1.8125 -1.949219 L 1.8125 -4.640625 C 1.816406 -4.839844 1.777344 -4.972656 1.703125 -5.054688 C 1.621094 -5.132812 1.472656 -5.171875 1.28125 -5.175781 L 0.71875 -5.175781 C 0.492188 -5.183594 0.339844 -5.144531 0.253906 -5.0625 C 0.164062 -4.980469 0.128906 -4.839844 0.121094 -4.640625 L 0.121094 -1.644531 C 0.121094 -0.875 0.304688 -0.324219 0.667969 0.0078125 C 1.039062 0.339844 1.632812 0.496094 2.433594 0.496094 L 2.984375 0.496094 C 3.785156 0.496094 4.378906 0.339844 4.742188 0.0078125 C 5.113281 -0.324219 5.296875 -0.875 5.296875 -1.644531 L 5.296875 -4.640625 C 5.292969 -4.839844 5.246094 -4.980469 5.171875 -5.0625 C 5.082031 -5.144531 4.921875 -5.183594 4.691406 -5.175781 L 4.132812 -5.175781 C 3.941406 -5.171875 3.804688 -5.132812 3.722656 -5.054688 C 3.640625 -4.972656 3.597656 -4.839844 3.601562 -4.640625 Z M 3.601562 -1.949219 "/></g></g></g><g fill="#333333" fill-opacity="1"><g transform="translate(32.824418, 45.729984)"><g><path d="M 1.925781 -1.300781 L 2.691406 -1.300781 L 3.492188 0 C 3.609375 0.179688 3.71875 0.3125 3.804688 0.394531 C 3.882812 0.472656 4.03125 0.511719 4.21875 0.503906 L 4.757812 0.503906 C 4.949219 0.496094 5.09375 0.460938 5.175781 0.390625 C 5.253906 0.304688 5.292969 0.179688 5.285156 0.0117188 C 5.285156 -0.132812 5.234375 -0.269531 5.140625 -0.402344 L 4.398438 -1.59375 C 4.519531 -1.652344 4.621094 -1.722656 4.710938 -1.796875 C 5.09375 -2.128906 5.285156 -2.609375 5.285156 -3.238281 C 5.285156 -3.863281 5.09375 -4.355469 4.710938 -4.679688 C 4.335938 -5.011719 3.679688 -5.175781 2.753906 -5.175781 L 0.753906 -5.175781 C 0.527344 -5.175781 0.371094 -5.125 0.261719 -5.019531 C 0.152344 -4.914062 0.109375 -4.757812 0.109375 -4.550781 L 0.109375 0.0117188 C 0.113281 0.179688 0.152344 0.3125 0.242188 0.394531 C 0.324219 0.472656 0.464844 0.511719 0.664062 0.503906 L 1.269531 0.503906 C 1.460938 0.496094 1.605469 0.460938 1.691406 0.390625 C 1.765625 0.304688 1.804688 0.179688 1.796875 0.0117188 L 1.796875 -1.179688 C 1.796875 -1.203125 1.8125 -1.230469 1.828125 -1.261719 C 1.847656 -1.289062 1.878906 -1.300781 1.925781 -1.300781 Z M 3.492188 -3.238281 C 3.492188 -3.078125 3.4375 -2.972656 3.320312 -2.90625 C 3.214844 -2.835938 3.035156 -2.804688 2.78125 -2.804688 L 1.925781 -2.804688 C 1.878906 -2.804688 1.847656 -2.816406 1.828125 -2.851562 C 1.8125 -2.875 1.796875 -2.902344 1.796875 -2.933594 L 1.796875 -3.539062 C 1.796875 -3.570312 1.8125 -3.589844 1.828125 -3.621094 C 1.847656 -3.652344 1.878906 -3.664062 1.925781 -3.664062 L 2.78125 -3.664062 C 3.035156 -3.664062 3.214844 -3.632812 3.320312 -3.578125 C 3.4375 -3.511719 3.492188 -3.398438 3.492188 -3.238281 Z M 3.492188 -3.238281 "/></g></g></g><g fill="#333333" fill-opacity="1"><g transform="translate(38.243665, 45.729984)"><g/></g></g><g fill="#333333" fill-opacity="1"><g transform="translate(41.431459, 45.729984)"><g><path d="M 1.8125 -1.949219 L 1.8125 -2.730469 C 1.8125 -3.023438 1.863281 -3.214844 1.964844 -3.320312 C 2.054688 -3.417969 2.246094 -3.46875 2.519531 -3.476562 L 2.882812 -3.476562 C 3.164062 -3.46875 3.355469 -3.429688 3.457031 -3.355469 C 3.558594 -3.277344 3.601562 -3.167969 3.601562 -3.042969 C 3.609375 -2.835938 3.652344 -2.703125 3.730469 -2.625 C 3.804688 -2.550781 3.933594 -2.519531 4.125 -2.519531 L 4.773438 -2.519531 C 4.972656 -2.519531 5.113281 -2.550781 5.183594 -2.625 C 5.261719 -2.703125 5.296875 -2.835938 5.296875 -3.042969 C 5.296875 -3.84375 5.113281 -4.398438 4.742188 -4.710938 C 4.378906 -5.023438 3.785156 -5.183594 2.984375 -5.183594 L 2.433594 -5.183594 C 1.621094 -5.183594 1.03125 -5.023438 0.664062 -4.710938 C 0.300781 -4.398438 0.121094 -3.839844 0.121094 -3.015625 L 0.121094 -1.644531 C 0.121094 -0.828125 0.300781 -0.273438 0.664062 0.03125 C 1.03125 0.339844 1.621094 0.492188 2.433594 0.496094 L 2.984375 0.496094 C 3.785156 0.496094 4.378906 0.34375 4.742188 0.0390625 C 5.113281 -0.269531 5.296875 -0.828125 5.296875 -1.644531 C 5.296875 -1.824219 5.261719 -1.964844 5.183594 -2.039062 C 5.113281 -2.125 4.972656 -2.167969 4.773438 -2.167969 L 4.125 -2.167969 C 3.933594 -2.167969 3.804688 -2.125 3.722656 -2.039062 C 3.640625 -1.964844 3.601562 -1.824219 3.601562 -1.644531 C 3.597656 -1.5 3.542969 -1.394531 3.449219 -1.320312 C 3.355469 -1.242188 3.164062 -1.203125 2.882812 -1.203125 L 2.519531 -1.203125 C 2.246094 -1.203125 2.054688 -1.257812 1.964844 -1.363281 C 1.863281 -1.464844 1.8125 -1.664062 1.8125 -1.949219 Z M 1.8125 -1.949219 "/></g></g></g><g fill="#333333" fill-opacity="1"><g transform="translate(46.850706, 45.729984)"><g><path d="M 3.085938 -5.195312 L 2.328125 -5.195312 C 2.097656 -5.203125 1.945312 -5.171875 1.863281 -5.085938 C 1.773438 -5.003906 1.703125 -4.863281 1.636719 -4.660156 L 0.140625 -0.375 C 0.0898438 -0.230469 0.0507812 -0.101562 0.03125 0.0117188 C 0.0273438 0.179688 0.0703125 0.304688 0.148438 0.390625 C 0.230469 0.460938 0.371094 0.496094 0.5625 0.503906 L 1.039062 0.503906 C 1.230469 0.511719 1.378906 0.472656 1.460938 0.394531 C 1.542969 0.3125 1.613281 0.179688 1.664062 0.0117188 L 1.824219 -0.453125 L 3.589844 -0.453125 L 3.753906 0.0117188 C 3.804688 0.179688 3.871094 0.3125 3.960938 0.394531 C 4.042969 0.472656 4.183594 0.511719 4.378906 0.503906 L 4.859375 0.503906 C 5.050781 0.496094 5.191406 0.460938 5.273438 0.390625 C 5.355469 0.304688 5.394531 0.179688 5.386719 0.0117188 C 5.367188 -0.101562 5.328125 -0.230469 5.273438 -0.375 L 3.78125 -4.660156 C 3.71875 -4.863281 3.640625 -5.003906 3.5625 -5.085938 C 3.476562 -5.171875 3.320312 -5.203125 3.085938 -5.195312 Z M 2.710938 -2.996094 L 3.066406 -1.964844 L 2.347656 -1.964844 Z M 2.710938 -2.996094 "/></g></g></g><g fill="#333333" fill-opacity="1"><g transform="translate(52.269954, 45.729984)"><g><path d="M 1.925781 -1.300781 L 2.691406 -1.300781 L 3.492188 0 C 3.609375 0.179688 3.71875 0.3125 3.804688 0.394531 C 3.882812 0.472656 4.03125 0.511719 4.21875 0.503906 L 4.757812 0.503906 C 4.949219 0.496094 5.09375 0.460938 5.175781 0.390625 C 5.253906 0.304688 5.292969 0.179688 5.285156 0.0117188 C 5.285156 -0.132812 5.234375 -0.269531 5.140625 -0.402344 L 4.398438 -1.59375 C 4.519531 -1.652344 4.621094 -1.722656 4.710938 -1.796875 C 5.09375 -2.128906 5.285156 -2.609375 5.285156 -3.238281 C 5.285156 -3.863281 5.09375 -4.355469 4.710938 -4.679688 C 4.335938 -5.011719 3.679688 -5.175781 2.753906 -5.175781 L 0.753906 -5.175781 C 0.527344 -5.175781 0.371094 -5.125 0.261719 -5.019531 C 0.152344 -4.914062 0.109375 -4.757812 0.109375 -4.550781 L 0.109375 0.0117188 C 0.113281 0.179688 0.152344 0.3125 0.242188 0.394531 C 0.324219 0.472656 0.464844 0.511719 0.664062 0.503906 L 1.269531 0.503906 C 1.460938 0.496094 1.605469 0.460938 1.691406 0.390625 C 1.765625 0.304688 1.804688 0.179688 1.796875 0.0117188 L 1.796875 -1.179688 C 1.796875 -1.203125 1.8125 -1.230469 1.828125 -1.261719 C 1.847656 -1.289062 1.878906 -1.300781 1.925781 -1.300781 Z M 3.492188 -3.238281 C 3.492188 -3.078125 3.4375 -2.972656 3.320312 -2.90625 C 3.214844 -2.835938 3.035156 -2.804688 2.78125 -2.804688 L 1.925781 -2.804688 C 1.878906 -2.804688 1.847656 -2.816406 1.828125 -2.851562 C 1.8125 -2.875 1.796875 -2.902344 1.796875 -2.933594 L 1.796875 -3.539062 C 1.796875 -3.570312 1.8125 -3.589844 1.828125 -3.621094 C 1.847656 -3.652344 1.878906 -3.664062 1.925781 -3.664062 L 2.78125 -3.664062 C 3.035156 -3.664062 3.214844 -3.632812 3.320312 -3.578125 C 3.4375 -3.511719 3.492188 -3.398438 3.492188 -3.238281 Z M 3.492188 -3.238281 "/></g></g></g><g fill="#000000" fill-opacity="1"><g transform="translate(21.122765, 50.257213)"><g><path d="M 1.511719 0.0664062 C 2.316406 0.0664062 2.710938 -0.429688 2.753906 -1.113281 L 2.578125 -1.113281 C 2.546875 -0.4375 2.171875 -0.0742188 1.511719 -0.0742188 C 0.78125 -0.0742188 0.398438 -0.488281 0.398438 -1.335938 C 0.398438 -2.179688 0.78125 -2.589844 1.511719 -2.589844 C 2.136719 -2.589844 2.507812 -2.308594 2.570312 -1.65625 L 2.742188 -1.65625 C 2.667969 -2.320312 2.277344 -2.730469 1.511719 -2.730469 C 0.648438 -2.730469 0.21875 -2.171875 0.21875 -1.335938 C 0.21875 -0.492188 0.648438 0.0664062 1.511719 0.0664062 Z M 1.511719 0.0664062 "/></g></g></g><g fill="#000000" fill-opacity="1"><g transform="translate(24.07479, 50.257213)"><g><path d="M 0.910156 0.0507812 C 1.453125 0.0507812 1.648438 -0.289062 1.71875 -0.503906 C 1.71875 -0.375 1.730469 -0.203125 1.753906 0 L 1.894531 0 C 1.875 -0.207031 1.863281 -0.445312 1.863281 -0.570312 L 1.863281 -1.472656 C 1.863281 -1.816406 1.671875 -2.066406 1.128906 -2.066406 C 0.609375 -2.066406 0.335938 -1.785156 0.308594 -1.367188 L 0.460938 -1.367188 C 0.484375 -1.644531 0.613281 -1.929688 1.128906 -1.929688 C 1.609375 -1.929688 1.722656 -1.707031 1.722656 -1.460938 C 1.722656 -1.285156 1.636719 -1.230469 1.390625 -1.191406 L 0.867188 -1.105469 C 0.460938 -1.035156 0.261719 -0.84375 0.261719 -0.511719 C 0.261719 -0.113281 0.574219 0.0507812 0.910156 0.0507812 Z M 0.929688 -0.0898438 C 0.644531 -0.0898438 0.429688 -0.21875 0.429688 -0.511719 C 0.429688 -0.792969 0.59375 -0.921875 0.910156 -0.976562 L 1.355469 -1.050781 C 1.570312 -1.089844 1.640625 -1.125 1.722656 -1.175781 L 1.722656 -0.902344 C 1.722656 -0.5625 1.507812 -0.0898438 0.929688 -0.0898438 Z M 0.929688 -0.0898438 "/></g></g></g><g fill="#000000" fill-opacity="1"><g transform="translate(26.210809, 50.257213)"><g><path d="M 1.269531 -2.015625 C 0.867188 -2.015625 0.601562 -1.808594 0.480469 -1.347656 L 0.480469 -2 L 0.320312 -2 L 0.320312 0 L 0.480469 0 L 0.480469 -0.683594 C 0.480469 -1.28125 0.601562 -1.902344 1.308594 -1.851562 L 1.363281 -1.847656 L 1.363281 -2.015625 Z M 1.269531 -2.015625 "/></g></g></g><g fill="#000000" fill-opacity="1"><g transform="translate(27.69482, 50.257213)"><g/></g></g><g fill="#000000" fill-opacity="1"><g transform="translate(28.430828, 50.257213)"><g><path d="M 2.136719 -0.734375 C 2.136719 -1.167969 1.929688 -1.300781 1.707031 -1.339844 C 2.003906 -1.390625 2.21875 -1.65625 2.21875 -1.996094 C 2.21875 -2.398438 2.003906 -2.660156 1.46875 -2.660156 L 0.300781 -2.660156 L 0.300781 0 L 0.46875 0 L 0.46875 -1.273438 L 1.371094 -1.273438 C 1.785156 -1.273438 1.96875 -1.089844 1.96875 -0.710938 L 1.96875 -0.394531 C 1.96875 -0.253906 1.976562 -0.128906 2.007812 0 L 2.175781 0 C 2.144531 -0.148438 2.136719 -0.246094 2.136719 -0.394531 Z M 0.46875 -1.410156 L 0.46875 -2.515625 L 1.449219 -2.515625 C 1.847656 -2.515625 2.039062 -2.371094 2.039062 -1.972656 C 2.039062 -1.632812 1.847656 -1.410156 1.40625 -1.410156 Z M 0.46875 -1.410156 "/></g></g></g><g fill="#000000" fill-opacity="1"><g transform="translate(30.94285, 50.257213)"><g><path d="M 1.902344 -0.640625 C 1.84375 -0.300781 1.625 -0.0742188 1.171875 -0.0742188 C 0.664062 -0.0742188 0.375 -0.378906 0.375 -1.003906 L 0.375 -1.011719 L 2.042969 -1.011719 C 2.046875 -1.046875 2.046875 -1.074219 2.046875 -1.121094 C 2.046875 -1.730469 1.691406 -2.0625 1.164062 -2.0625 C 0.535156 -2.0625 0.207031 -1.628906 0.207031 -1.003906 C 0.207031 -0.371094 0.523438 0.0625 1.164062 0.0625 C 1.738281 0.0625 2 -0.28125 2.050781 -0.640625 Z M 1.164062 -1.925781 C 1.5625 -1.925781 1.871094 -1.722656 1.878906 -1.148438 L 0.378906 -1.148438 C 0.425781 -1.671875 0.707031 -1.925781 1.164062 -1.925781 Z M 1.164062 -1.925781 "/></g></g></g><g fill="#000000" fill-opacity="1"><g transform="translate(33.19887, 50.257213)"><g><path d="M 1.328125 -2.0625 C 0.929688 -2.0625 0.617188 -1.871094 0.480469 -1.316406 L 0.480469 -2 L 0.320312 -2 L 0.320312 0 L 0.480469 0 L 0.480469 -0.605469 C 0.480469 -1.398438 0.757812 -1.925781 1.300781 -1.925781 C 1.671875 -1.925781 1.851562 -1.742188 1.851562 -1.292969 L 1.851562 0 L 2.011719 0 L 2.011719 -1.328125 C 2.011719 -1.832031 1.769531 -2.0625 1.328125 -2.0625 Z M 1.328125 -2.0625 "/></g></g></g><g fill="#000000" fill-opacity="1"><g transform="translate(35.49089, 50.257213)"><g><path d="M 0.726562 0 L 1.347656 0 L 1.347656 -0.136719 L 0.648438 -0.136719 L 0.648438 -1.863281 L 1.347656 -1.863281 L 1.347656 -2 L 0.648438 -2 L 0.648438 -2.425781 L 0.53125 -2.425781 L 0.5 -2 L 0.101562 -1.980469 L 0.101562 -1.863281 L 0.488281 -1.863281 L 0.488281 -0.222656 C 0.488281 -0.0664062 0.546875 0 0.726562 0 Z M 0.726562 0 "/></g></g></g><g fill="#000000" fill-opacity="1"><g transform="translate(36.978903, 50.257213)"><g><path d="M 0.910156 0.0507812 C 1.453125 0.0507812 1.648438 -0.289062 1.71875 -0.503906 C 1.71875 -0.375 1.730469 -0.203125 1.753906 0 L 1.894531 0 C 1.875 -0.207031 1.863281 -0.445312 1.863281 -0.570312 L 1.863281 -1.472656 C 1.863281 -1.816406 1.671875 -2.066406 1.128906 -2.066406 C 0.609375 -2.066406 0.335938 -1.785156 0.308594 -1.367188 L 0.460938 -1.367188 C 0.484375 -1.644531 0.613281 -1.929688 1.128906 -1.929688 C 1.609375 -1.929688 1.722656 -1.707031 1.722656 -1.460938 C 1.722656 -1.285156 1.636719 -1.230469 1.390625 -1.191406 L 0.867188 -1.105469 C 0.460938 -1.035156 0.261719 -0.84375 0.261719 -0.511719 C 0.261719 -0.113281 0.574219 0.0507812 0.910156 0.0507812 Z M 0.929688 -0.0898438 C 0.644531 -0.0898438 0.429688 -0.21875 0.429688 -0.511719 C 0.429688 -0.792969 0.59375 -0.921875 0.910156 -0.976562 L 1.355469 -1.050781 C 1.570312 -1.089844 1.640625 -1.125 1.722656 -1.175781 L 1.722656 -0.902344 C 1.722656 -0.5625 1.507812 -0.0898438 0.929688 -0.0898438 Z M 0.929688 -0.0898438 "/></g></g></g><g fill="#000000" fill-opacity="1"><g transform="translate(39.114923, 50.257213)"><g><path d="M 0.304688 0 L 0.464844 0 L 0.464844 -2.800781 L 0.304688 -2.800781 Z M 0.304688 0 "/></g></g></g><g fill="#000000" fill-opacity="1"><g transform="translate(39.882929, 50.257213)"><g/></g></g><g fill="#000000" fill-opacity="1"><g transform="translate(40.618937, 50.257213)"><g><path d="M 2.324219 0 L 2.5 0 L 1.449219 -2.660156 L 1.210938 -2.660156 L 0.160156 0 L 0.332031 0 L 0.640625 -0.777344 L 2.015625 -0.777344 Z M 0.695312 -0.921875 L 1.328125 -2.519531 L 1.960938 -0.921875 Z M 0.695312 -0.921875 "/></g></g></g><g fill="#000000" fill-opacity="1"><g transform="translate(43.278959, 50.257213)"><g><path d="M 1.890625 -2 L 1.890625 -1.589844 C 1.761719 -1.898438 1.488281 -2.058594 1.101562 -2.058594 C 0.507812 -2.058594 0.21875 -1.707031 0.21875 -1.046875 C 0.21875 -0.378906 0.507812 -0.0273438 1.101562 -0.0273438 C 1.488281 -0.0273438 1.761719 -0.1875 1.890625 -0.5 L 1.890625 0.0390625 C 1.890625 0.5 1.683594 0.703125 1.136719 0.703125 C 0.609375 0.703125 0.453125 0.425781 0.433594 0.164062 L 0.28125 0.164062 C 0.320312 0.578125 0.574219 0.84375 1.144531 0.84375 C 1.835938 0.84375 2.050781 0.535156 2.050781 0.0273438 L 2.050781 -2 Z M 1.132812 -0.167969 C 0.652344 -0.167969 0.386719 -0.445312 0.386719 -1.046875 C 0.386719 -1.652344 0.652344 -1.921875 1.132812 -1.921875 C 1.566406 -1.921875 1.890625 -1.691406 1.890625 -1.046875 C 1.890625 -0.402344 1.566406 -0.167969 1.132812 -0.167969 Z M 1.132812 -0.167969 "/></g></g></g><g fill="#000000" fill-opacity="1"><g transform="translate(45.642981, 50.257213)"><g><path d="M 1.902344 -0.640625 C 1.84375 -0.300781 1.625 -0.0742188 1.171875 -0.0742188 C 0.664062 -0.0742188 0.375 -0.378906 0.375 -1.003906 L 0.375 -1.011719 L 2.042969 -1.011719 C 2.046875 -1.046875 2.046875 -1.074219 2.046875 -1.121094 C 2.046875 -1.730469 1.691406 -2.0625 1.164062 -2.0625 C 0.535156 -2.0625 0.207031 -1.628906 0.207031 -1.003906 C 0.207031 -0.371094 0.523438 0.0625 1.164062 0.0625 C 1.738281 0.0625 2 -0.28125 2.050781 -0.640625 Z M 1.164062 -1.925781 C 1.5625 -1.925781 1.871094 -1.722656 1.878906 -1.148438 L 0.378906 -1.148438 C 0.425781 -1.671875 0.707031 -1.925781 1.164062 -1.925781 Z M 1.164062 -1.925781 "/></g></g></g><g fill="#000000" fill-opacity="1"><g transform="translate(47.899001, 50.257213)"><g><path d="M 1.328125 -2.0625 C 0.929688 -2.0625 0.617188 -1.871094 0.480469 -1.316406 L 0.480469 -2 L 0.320312 -2 L 0.320312 0 L 0.480469 0 L 0.480469 -0.605469 C 0.480469 -1.398438 0.757812 -1.925781 1.300781 -1.925781 C 1.671875 -1.925781 1.851562 -1.742188 1.851562 -1.292969 L 1.851562 0 L 2.011719 0 L 2.011719 -1.328125 C 2.011719 -1.832031 1.769531 -2.0625 1.328125 -2.0625 Z M 1.328125 -2.0625 "/></g></g></g><g fill="#000000" fill-opacity="1"><g transform="translate(50.191021, 50.257213)"><g><path d="M 0.207031 -1.003906 C 0.207031 -0.351562 0.53125 0.0625 1.144531 0.0625 C 1.699219 0.0625 2.027344 -0.261719 2.0625 -0.742188 L 1.910156 -0.742188 C 1.863281 -0.292969 1.574219 -0.0742188 1.144531 -0.0742188 C 0.664062 -0.0742188 0.375 -0.378906 0.375 -1.003906 C 0.375 -1.628906 0.671875 -1.925781 1.167969 -1.925781 C 1.523438 -1.925781 1.808594 -1.753906 1.882812 -1.300781 L 2.035156 -1.300781 C 1.980469 -1.753906 1.710938 -2.0625 1.160156 -2.0625 C 0.554688 -2.0625 0.207031 -1.648438 0.207031 -1.003906 Z M 0.207031 -1.003906 "/></g></g></g><g fill="#000000" fill-opacity="1"><g transform="translate(52.447041, 50.257213)"><g><path d="M 1.898438 -2 L 1.136719 -0.230469 L 1.105469 -0.136719 L 1.066406 -0.230469 L 0.308594 -2 L 0.132812 -2 L 0.992188 0 L 1.035156 0 L 0.753906 0.664062 L 0.277344 0.664062 L 0.277344 0.800781 L 0.722656 0.800781 C 0.839844 0.800781 0.871094 0.753906 0.914062 0.648438 L 2.066406 -2 Z M 1.898438 -2 "/></g></g></g></svg>